<svg width="512" height="512" viewBox="0 0 512 512" fill="none" xmlns="http://www.w3.org/2000/svg">
<path fill-rule="evenodd" clip-rule="evenodd" d="M262.012 85.4704C258.293 83.3172 253.707 83.3172 249.988 85.4704L130.106 154.875C124.784 157.957 124.784 165.641 130.106 168.722L249.989 238.128C253.708 240.281 258.295 240.281 262.014 238.128L381.895 168.723C387.218 165.642 387.218 157.958 381.895 154.876L262.012 85.4704ZM233.954 57.7767C247.591 49.8817 264.409 49.8817 278.046 57.7767L416.296 137.816C429.884 145.683 438.25 160.194 438.25 175.895V336.108C438.25 351.809 429.884 366.32 416.296 374.187L278.046 454.226C264.409 462.121 247.591 462.121 233.954 454.226L95.7044 374.187C82.1165 366.32 73.75 351.809 73.75 336.108V175.895C73.75 160.194 82.1165 145.683 95.7044 137.816L233.954 57.7767ZM297.29 288.074L297.477 388.346H297.472C297.477 390.793 299.244 392.841 300.604 391.971L305.638 388.75C306.423 388.247 306.893 387.087 306.893 385.676L306.816 345.351L311.615 342.282C315.121 340.039 317.946 337.231 320.097 333.863C322.247 330.49 323.966 326.608 325.25 322.204C326.351 318.537 327.07 314.907 327.4 311.32C327.731 307.738 327.893 303.49 327.884 298.587C327.87 292.05 327.553 287.062 326.931 283.627C326.308 280.187 325.197 277.555 323.593 275.717C321.984 273.883 320.197 273.032 318.229 273.165C316.26 273.303 313.981 274.196 311.399 275.85L299.053 283.755C297.951 284.458 297.29 286.093 297.29 288.074ZM306.783 323.021L306.725 296.112L306.72 296.122C306.72 295.21 307.027 294.454 307.534 294.131L311.61 291.523C313.459 290.34 314.872 289.893 315.858 290.183C316.845 290.473 317.582 291.328 318.08 292.749L318.096 292.794C318.584 294.186 318.857 294.963 318.923 297.195C318.985 299.452 319.029 301.861 319.029 304.412C319.032 306.346 319.012 306.766 318.97 307.641V307.641C318.952 308.013 318.93 308.466 318.904 309.153C318.813 311.458 318.526 313.534 318.037 315.382C317.549 317.335 316.782 319.102 315.738 320.689C314.694 322.275 313.219 323.682 311.313 324.903L309.441 326.1C308.286 326.836 306.783 325.102 306.783 323.021ZM337.295 366.339L337.113 268.095C337.108 264.888 338.186 262.247 339.963 261.106L352.233 253.253C363.305 246.165 368.861 253.296 368.899 274.642C368.914 281.074 368.32 286.923 367.132 292.187C365.939 297.451 363.842 302.425 360.834 307.109L370.178 346.604C370.7 348.808 370.197 350.965 368.981 351.744L363.823 355.046C362.434 355.934 360.59 354.376 360.044 351.839L352.261 315.818L346.634 319.419L346.716 362.728C346.716 364.757 346.035 366.429 344.91 367.151L340.466 369.997C339.091 370.876 337.31 368.809 337.305 366.334L337.295 366.339ZM346.548 276.105L346.601 299.76C346.601 301.451 347.827 302.862 348.765 302.263L351.96 300.216C353.622 299.152 354.943 297.926 355.925 296.529C356.907 295.132 357.673 293.546 358.224 291.759C358.713 290.016 359.048 288.034 359.23 285.825C359.412 283.616 359.498 282.566 359.493 279.806C359.489 277.641 359.43 277.086 359.311 275.99V275.99C359.29 275.792 359.267 275.577 359.242 275.333C359.229 275.206 359.215 275.071 359.201 274.927C359.014 272.95 358.641 271.373 358.085 270.195C356.912 268.085 354.694 268.071 351.433 270.157L348.104 272.285C347.132 272.908 346.543 274.352 346.548 276.1V276.105ZM377.84 253.66C376.925 257.617 376.47 261.798 376.48 266.188L376.585 323.147C376.595 327.741 377.064 331.38 377.993 334.055C378.923 336.734 380.158 338.653 381.7 339.813C383.18 341.119 384.861 341.732 386.739 341.651C388.616 341.571 390.508 340.924 392.414 339.703C394.32 338.482 396.212 336.71 398.084 334.387C399.957 332.064 401.662 329.285 403.194 326.054C404.665 322.966 405.862 319.493 406.777 315.631C407.691 311.773 408.146 304.309 408.137 299.715L408.774 247.088C408.764 242.694 407.988 234.394 403.755 231.391C402.179 230.275 399.76 229.782 397.883 229.858C396.001 229.938 393.041 231.354 391.135 232.575C389.229 233.796 386.408 236.604 384.181 239.412C380.359 244.229 378.755 249.697 377.84 253.66ZM387.414 321.127C386.15 320.149 385.996 318.106 385.996 312.006V311.996L385.891 265.242C385.886 261.465 386.509 258.126 387.768 255.532C389.023 252.942 391.379 249.427 393.103 248.329C394.828 247.232 396.868 247.159 398.084 248.328C399.377 249.575 399.375 251.345 399.369 257.084C399.368 257.51 399.368 257.958 399.368 258.429L398.731 302.585C398.736 306.366 398.108 310.823 396.853 313.417C395.594 316.011 393.649 319.365 391.925 320.467C390.201 321.569 388.678 322.111 387.414 321.127Z" fill="#414141"/>
</svg>
